<?xml version="1.0" encoding="UTF-8" standalone="no"?>
<svg
   xmlns:dc="http://purl.org/dc/elements/1.1/"
   xmlns:cc="http://creativecommons.org/ns#"
   xmlns:rdf="http://www.w3.org/1999/02/22-rdf-syntax-ns#"
   xmlns:svg="http://www.w3.org/2000/svg"
   xmlns="http://www.w3.org/2000/svg"
   xmlns:sodipodi="http://sodipodi.sourceforge.net/DTD/sodipodi-0.dtd"
   xmlns:inkscape="http://www.inkscape.org/namespaces/inkscape"
   inkscape:version="1.0 (4035a4fb49, 2020-05-01)"
   sodipodi:docname="iconmonstr-twitter-1.svg"
   id="svg4"
   version="1.1"
   viewBox="0 0 24 24"
   height="24"
   width="24">
  <metadata
     id="metadata10">
    <rdf:RDF>
      <cc:Work
         rdf:about="">
        <dc:format>image/svg+xml</dc:format>
        <dc:type
           rdf:resource="http://purl.org/dc/dcmitype/StillImage" />
        <dc:title></dc:title>
      </cc:Work>
    </rdf:RDF>
  </metadata>
  <defs
     id="defs8" />
  <sodipodi:namedview
     inkscape:current-layer="svg4"
     inkscape:window-maximized="0"
     inkscape:window-y="0"
     inkscape:window-x="0"
     inkscape:cy="11.766538"
     inkscape:cx="5.79803"
     inkscape:zoom="21.770283"
     showgrid="false"
     id="namedview6"
     inkscape:window-height="914"
     inkscape:window-width="1683"
     inkscape:pageshadow="2"
     inkscape:pageopacity="0"
     guidetolerance="10"
     gridtolerance="10"
     objecttolerance="10"
     borderopacity="1"
     bordercolor="#666666"
     pagecolor="#ffffff" />
  <path
     style="stroke-width:0.999999;fill:#fafafa;fill-opacity:1"
     id="path2"
     d="m 24,4.5570001 c -0.883,0.392 -1.832,0.6560001 -2.828,0.7750001 C 22.189,4.723 22.97,3.7580001 23.337,2.608 22.386,3.172 21.332,3.5820001 20.21,3.8030001 19.313,2.846 18.032,2.248 16.616,2.248 13.437,2.248 11.101,5.2140002 11.819,8.2930003 7.728,8.0880003 4.1,6.1280002 1.671,3.149 0.381,5.3620002 1.002,8.2570004 3.194,9.7230003 2.388,9.6970005 1.628,9.4760004 0.965,9.1070003 0.911,11.388 2.546,13.522 4.914,13.997001 c -0.693,0.188 -1.452,0.232 -2.224,0.084 0.626,1.956 2.444,3.379 4.6,3.419 -2.07,1.623 -4.678,2.348 -7.29,2.04 2.179,1.397 4.768,2.211999 7.548,2.211999 9.142,0 14.307,-7.721 13.995,-14.6459998 C 22.505,6.4110001 23.34,5.5440001 24,4.5570001 Z" />
</svg>
